<?xml version="1.0" encoding="utf-8"?>
<!-- Generator: Adobe Illustrator 21.1.0, SVG Export Plug-In . SVG Version: 6.00 Build 0)  -->
<svg version="1.1" id="Layer_1" xmlns="http://www.w3.org/2000/svg" xmlns:xlink="http://www.w3.org/1999/xlink" x="0px" y="0px"
	 viewBox="0 0 336.2 329.2" style="enable-background:new 0 0 336.2 329.2;" xml:space="preserve">
<style type="text/css">
	.st0{fill:#787878;}
</style>
<g>
	<path class="st0" d="M294.3,22.8c9.4,0,17.1,7.7,17.1,17.1v157.4c0,9.4-7.7,17.1-17.1,17.1h-34.3h-19l5.6,18.1l16.1,52l-95-67.6
		l-3.6-2.6h-4.5H43.1c-9.4,0-17.1-7.7-17.1-17.1V40c0-9.4,7.7-17.1,17.1-17.1H294.3 M294.3,8.8H43.1C25.9,8.8,12,22.8,12,40v157.4
		c0,17.2,13.9,31.1,31.1,31.1h116.6L288.5,320l-28.4-91.6h34.3c17.2,0,31.1-13.9,31.1-31.1V40C325.5,22.8,311.5,8.8,294.3,8.8
		L294.3,8.8z"/>
</g>
<g>
	<path class="st0" d="M82.7,113.6c4.6,0,8.3,3.7,8.3,8.3c0,4.6-3.7,8.3-8.3,8.3c-4.6,0-8.3-3.7-8.3-8.3
		C74.4,117.3,78.1,113.6,82.7,113.6 M82.7,99.6c-12.3,0-22.3,10-22.3,22.3s10,22.3,22.3,22.3s22.3-10,22.3-22.3S95,99.6,82.7,99.6
		L82.7,99.6z"/>
</g>
<g>
	<path class="st0" d="M168.7,113.6c4.6,0,8.3,3.7,8.3,8.3c0,4.6-3.7,8.3-8.3,8.3c-4.6,0-8.3-3.7-8.3-8.3
		C160.4,117.3,164.1,113.6,168.7,113.6 M168.7,99.6c-12.3,0-22.3,10-22.3,22.3c0,12.3,10,22.3,22.3,22.3s22.3-10,22.3-22.3
		C191,109.6,181,99.6,168.7,99.6L168.7,99.6z"/>
</g>
<g>
	<path class="st0" d="M255.8,113.6c4.6,0,8.3,3.7,8.3,8.3c0,4.6-3.7,8.3-8.3,8.3c-4.6,0-8.3-3.7-8.3-8.3
		C247.5,117.3,251.2,113.6,255.8,113.6 M255.8,99.6c-12.3,0-22.3,10-22.3,22.3c0,12.3,10,22.3,22.3,22.3s22.3-10,22.3-22.3
		C278.1,109.6,268.1,99.6,255.8,99.6L255.8,99.6z"/>
</g>
</svg>
